<svg id="Layer_1" data-name="Layer 1" xmlns="http://www.w3.org/2000/svg" viewBox="0 0 928.24 679.94"><title>map</title><path id="path7385" d="M581.31,580.52a17.5,17.5,0,0,0-5.15-2c-1.79-.39-3.25-1.07-3.25-1.52s-2.24-2.52-5-4.61l-5-3.79,4.1-2.33c2.86-1.62,4.47-2,5.32-1.32,1.61,1.34,2.53.27,2.53-2.95a6.35,6.35,0,0,1,1.22-3.85c1-1,1-1.65,0-3.16-.76-1.21-.84-2.15-.22-2.53s1-5.66,1-12c0-10.49.15-11.44,1.86-11.44,1.05,0,3.09,1.78,4.69,4.07a20.3,20.3,0,0,0,5.68,5.55c2.92,1.51,6.77,1.07,6.77-.77,0-.59,1.19-.74,2.93-.36,2.36.51,3.15.22,4.08-1.52.76-1.41,1.81-2,3-1.67a3.24,3.24,0,0,0,3-.91c.93-1.12.62-1.93-1.51-3.9-1.48-1.37-3.34-2.49-4.13-2.49a1.45,1.45,0,0,1-1.45-1.45c0-.8-2.23-2.47-4.95-3.72-5.59-2.56-6.91-5.26-4.69-9.59A29.86,29.86,0,0,0,594.4,506c.62-2.89.37-3.69-1.63-5.23-1.31-1-1.77-1.82-1-1.84,1.83,0,9.13-8,9.33-10.22.1-1,.21-2.59.25-3.55.12-2.4,3.43-5.52,5.16-4.86a2.7,2.7,0,0,1,1.17,2.77c-.17,1.56.72,2.84,3,4.28,3.8,2.44,3.7,3.87-.3,4.57-2.74.47-2.93.82-3.22,5.83-.27,4.79,0,5.58,2.5,7.75,3.56,3.05,4.69,3,7-.16l1.88-2.58,3.46,1.83,3.82,2c.19.11-.52,1.46-1.58,3-2.46,3.57-6.26,15-6.07,18.31.21,3.72,1.5,4.86,7.43,6.59s6.15,3.1.36,4c-3.73.59-5.64,2.54-4.43,4.5.32.51-.39,2.94-1.57,5.39-2.7,5.57-2.32,7.68,1.57,8.8a5.16,5.16,0,0,1,4,4c1,3.3,2.27,3.71,7.52,2.37,2.12-.55,2.84-.2,4,1.92,1.3,2.42,1.19,2.76-1.85,5.48-3.37,3-5,3.3-15.35,2.93-3.3-.12-5.93.25-6.33.91-1,1.57-4.7-3.36-4-5.26,1.68-4.37-5.72-2.22-8.08,2.34-1.46,2.83-1.47,3.35-.06,5.5,1.89,2.87.54,4.06-2.65,2.33s-10-1.65-11.86.14C584.69,582,583.56,582.08,581.31,580.52Z" transform="translate(-12.91 -18)" style="fill:#f4f4f4"/><path id="path7375" d="M399.73,552.36a7.4,7.4,0,0,1-3.32-3.41c-.35-1.11-1.26-2-2-2a3.43,3.43,0,0,1-2.4-1.75c-1-1.67-1-1.67-1.05,0,0,2.12.09,2.12-4.5.2-2.51-1-3.53-2-3.15-3,.3-.8,0-1.52-.66-1.6a18.82,18.82,0,0,1-6-1.69,18.47,18.47,0,0,0-4-1.24c-2.37-.16,5-2.69,11.56-4,5.05-1,6.89-1.79,7.34-3.22s1.22-1.8,4-1.28a19.09,19.09,0,0,0,7.44-.57c5.74-1.72,6.54-.57,6.19,8.89-.16,4.21-.66,7.9-1.12,8.2a6,6,0,0,0-1.48,2.65,10,10,0,0,1-2.39,3.67C402.62,553.58,402.07,553.6,399.73,552.36Z" transform="translate(-12.91 -18)" style="fill:#f4f4f4"/><path id="path7371" d="M409.91,545a56,56,0,0,1,1-6.85c.75-4,.63-5.71-.52-8l-1.48-3-8.68.25c-7.53.21-8.79.5-9.55,2.21-.7,1.56-2.95,2.35-10.75,3.78-9.12,1.66-10,1.67-11.5.17a5.53,5.53,0,0,0-3.19-1.63c-1.91,0-6.26-4.44-8.29-8.47a10.84,10.84,0,0,0-3.93-4.18c-2.46-1.23-5-4.78-5-7.14,0-1.39-4.05-7.49-5.28-8-.42-.19-.75-1.4-.75-2.69a15.44,15.44,0,0,0-2.14-6c-2-3.4-2-3.74-.47-5.31.92-.92,3.75-2.13,6.29-2.68s5.1-1.81,5.71-2.81c2.48-4.07,9.31-10.69,11-10.69a13.64,13.64,0,0,0,5.19-2.07c4.2-2.59,6.46-2,12.3,3.38l4.42,4,1.35-4.62c.74-2.55,1.79-4.9,2.33-5.24,1.47-.9,1.19-4.43-.47-6.09-1.92-1.92-.92-4.71,1.25-3.5,2.33,1.31,5.94-.72,6.71-3.76.52-2.06.09-3.1-2.06-4.94-2.55-2.19-2.65-2.58-1.58-6.13,1.5-5,1.63-4.52-2.36-8.94l-3.51-3.87,1.61-7.1c1.68-7.46,2.75-8.56,8.4-8.63,2,0,2.56-.6,2.83-2.92.18-1.59-.22-3.23-.9-3.65-2.19-1.35-.18-4.12,2.73-3.78,2.73.33,4.63,2.82,2.15,2.82-1.24,0-2.9,4.57-4.49,12.38-.44,2.17-.25,2.76.79,2.42,1.48-.49,3.29-3.49,4.92-8.16.84-2.39,1.24-2.65,2.5-1.61.95.78,1.16,1.64.58,2.35s-1.23,3.66-1.62,6.77l-.7,5.65,3.15.69c4,.88,6.06-.77,6.06-4.87s2.38-5.58,6.75-4.42c3.84,1,3.88,1.36,1.12,8.94-2,5.47-2.32,5.82-5.14,5.6-1.7-.14-3.21.31-3.46,1s.27,1.25,1.14,1.25,1.59.44,1.59,1c0,1.14-3.59,2.1-6.5,1.76-1.42-.17-1.92.27-1.71,1.51.16,1-.21,1.75-.82,1.75s-.85.81-.53,1.83a3.67,3.67,0,0,1-1.43,3.66c-1.1,1-2.77,4.22-3.69,7.16s-2.28,5.35-3,5.35c-2.2,0-1.47,2.82.93,3.58a7.62,7.62,0,0,1,3.34,2.21c.85,1.16,2,1.31,5,.66a53.85,53.85,0,0,1,8.41-.92c15.06-.29,15.47-.38,20.33-4.16q7.88-6.13,2.67-10.87c-2.62-2.36-2.53-3.3.45-4.66,2-.91,3.41-.71,7.59,1.09,5.95,2.55,8.67,2.05,13.7-2.56,1.72-1.58,4.56-4.14,6.32-5.7l3.18-2.83,3.18,3.08c1.74,1.7,3.91,3.08,4.8,3.08,1.36,0,1.48.54.74,3.12a24.29,24.29,0,0,1-2.66,5.75,10.41,10.41,0,0,0-1.46,6.73c.28,3.73,0,4.21-2.68,5.33a6.33,6.33,0,0,0-3.57,3.55c-.32,1.28-2.22,4.27-4.22,6.67-5.29,6.32-5.91,8.1-3.9,11.17,1.6,2.44,1.58,2.7-.56,5.58-1.73,2.35-3.27,3.17-6.82,3.65-6.27.84-10.71,2.28-12.07,3.92-.62.75-4.16,1.88-7.85,2.5-7.8,1.32-8.3,1.59-10,5.36-1.47,3.35-.88,4.67,2.1,4.67a27.83,27.83,0,0,1,6.85,1.66c4.39,1.57,4.6,1.82,3.7,4.21-.65,1.69-.58,4.12.18,7.33,1,4.29,1.39,4.73,3.45,4.21,1.26-.31,2.58-.09,2.94.49,1.07,1.72-3.42,6.85-6.52,7.47-1.58.31-5.38,2.61-8.44,5.11-4.25,3.46-6.12,4.4-7.9,4a14.53,14.53,0,0,0-6,.41C410.35,546.66,409.91,546.56,409.91,545Z" transform="translate(-12.91 -18)" style="fill:#f4f4f4"/><path id="path7361" d="M500.16,506.8c-.39-1.47-1.45-1.8-5.61-1.74-2.83.05-6.11.69-7.28,1.43-1.85,1.17-2.35,1.12-3.66-.35a9.92,9.92,0,0,1-1.86-4.7c-.19-1.65-1-3.3-1.84-3.68-2.66-1.2-6.82-.86-8.36.68-2.31,2.31-5.53,1.84-6.83-1-.62-1.37-1.4-2.51-1.72-2.51a5.88,5.88,0,0,1-2-.89c-1.11-.7-.93-1.45.92-4,2.15-2.91,2.19-3.21.62-4.95-2.46-2.72-2.1-4.21,2.34-9.58,2.21-2.67,4.27-5.89,4.59-7.15a6.17,6.17,0,0,1,3.4-3.46c3-1.25,4.28-4.18,3.36-7.73a6.53,6.53,0,0,1,1.43-5,15.05,15.05,0,0,0,2.36-5.3c.43-3.06,3.84-3.81,7.05-1.56a11.88,11.88,0,0,0,5.77,1.58c2.66,0,4.5.89,7.47,3.62,2.17,2,5.24,4,6.84,4.45,2.44.7,3.29.41,5.41-1.87,2.77-3,8.38-3.76,9.37-1.32.31.76,3.34,2.24,6.75,3.28,3.71,1.14,6.19,2.46,6.19,3.3a5.1,5.1,0,0,0,1.5,2.89c1.33,1.33,1.32,1.67-.07,3.07a2.48,2.48,0,0,1-3.44.57c-2.9-1.55-5-1.18-5,.88a4.65,4.65,0,0,1-1.5,3.12,4.6,4.6,0,0,0-1.5,3.1c0,1.52-.53,1.75-3,1.25q-3-.6-3,.6c0,.77-1.27,1.1-3.48.91-4.55-.4-6.7,2.22-5.86,7.14a15,15,0,0,0,1.35,4.5,14.81,14.81,0,0,1,1.45,4.22c.44,2.08,2.44,4.81,5.61,7.66,5.45,4.9,6.12,6.62,2.56,6.62a9.38,9.38,0,0,0-4.78,1.9C512.35,509.52,500.86,509.49,500.16,506.8Z" transform="translate(-12.91 -18)" style="fill:#f4f4f4"/><path id="path7359" d="M526.12,505.75a4.13,4.13,0,0,1-1.23-2.26c0-.58-2.44-3.18-5.41-5.79-3.66-3.21-5.64-5.79-6.11-8a14.47,14.47,0,0,0-1.48-4.26c-1.09-1.38-1.42-5.67-.59-7.59.44-1,2.07-1.64,4.4-1.73,2-.07,3.84-.58,4-1.12s1.65-.72,3.26-.39c2.46.49,2.93.26,2.93-1.42a4.79,4.79,0,0,1,1.5-3.25,4.78,4.78,0,0,0,1.5-3.23c0-1.5.43-1.81,1.75-1.26,4,1.65,5.11,1.55,7.12-.6s2.11-2.28.12-4.13c-2.32-2.16-2.27-1.92-1-5.2l1-2.55,4.68,2.48c5.6,3,7.38,3.13,7.38.6s3.4-6.6,4.83-5.71a2.9,2.9,0,0,1,1.17,2.23c0,.83,1.14,3.47,2.54,5.86l2.55,4.34-2.79,2.6c-1.54,1.42-3,2.13-3.13,1.58-.82-2.44-3.84-.82-5.12,2.74a47.78,47.78,0,0,1-3.69,7.46c-1.28,2-2.09,4.33-1.8,5.09.35.92-1.17,2.19-4.52,3.78-4.75,2.26-5,2.61-5,6.19,0,2.45-.53,4-1.5,4.37a3.28,3.28,0,0,0-1.5,3c0,1.31-.35,2.39-.77,2.39s-1.45,1.13-2.29,2.51C527.66,506.41,527.06,506.7,526.12,505.75Z" transform="translate(-12.91 -18)" style="fill:#f4f4f4"/><path id="path7357" d="M919.67,479.44c-11,8.25-23.25,17.35-27.32,20.23L885,504.89l-11.74-13.43c-10.55-12.07-11.91-13.29-13.36-12-.88.8-3.26,1.46-5.28,1.46h-3.67V474.5c0-3.54-.45-6.72-1-7.06-2.43-1.5-.95-6.14,3.25-10.19,7.29-7,21.57-12.76,36.88-14.78a32.25,32.25,0,0,0,10.5-4.19,50.08,50.08,0,0,1,10.37-4.79c7.46-2,25.34.31,30.24,3.89" transform="translate(-12.91 -18)" style="fill:#f4f4f4"/><path id="path7351" d="M849.06,471.94c0-1.37.23-1.94.51-1.25a3.83,3.83,0,0,1,0,2.5C849.29,473.88,849.06,473.32,849.06,471.94Z" transform="translate(-12.91 -18)" style="fill:#f4f4f4"/><path id="path7347" d="M566.47,461.41a7.61,7.61,0,0,0-3.81-1.47c-1.29,0-2.64-1.7-4.37-5.48-1.38-3-3-5.76-3.52-6.1-1.4-.87-5.86,3.52-5.86,5.76,0,2.57-3,2.3-7-.66-3.48-2.57-6-2.07-6,1.17,0,1.58-2.25,1.19-7.41-1.29a14,14,0,0,0-4.25-1.4,1.43,1.43,0,0,1-1.34-1.5c0-1.11-1.16-1.5-4.43-1.5-3.53,0-4.83.51-6.39,2.5-2.78,3.53-5.3,3.12-10.23-1.66-3.63-3.52-5-4.18-8.74-4.31-2.95-.1-4.89-.74-5.73-1.88s-2-1.55-3.88-1.09c-2.92.74-3.27-.16-1.2-3.11s3.13-13.1,1.54-15c-1.07-1.29-1-2.07.44-4.51,2-3.33,1.48-6.22-1.64-9.64-2.21-2.41-3.74-2.17-3.74.59,0,2.12-5.63,6.55-6.51,5.12-1-1.59-2.49-1.14-2.54.76,0,1.06-.79.33-1.95-1.86a11.73,11.73,0,0,0-4.86-4.83c-5-2.08-7.38-5.45-7.89-11.28-.28-3.14-1.1-5.78-2-6.52s-1.37-1.38-1.14-1.55c3-2.22,6.29-3.71,8.14-3.72,6.8-.05,11-2.58,19.82-11.92,8.57-9.07,8.74-9.35,8.21-13.32-.51-3.76-.39-4,1.57-3.51,2.43.64,3.74-.61,4.71-4.49.38-1.51,1.09-2.75,1.59-2.75s1.86-1,3-2.15l2.15-2.15L504,350c2.43,2.93,2.83,4.28,2.85,9.75,0,4.86.53,7,2.18,9.37,1.88,2.63,2.15,4.3,2.06,12.66-.14,12.14.15,13.12,3.85,13.12,1.62,0,2.94-.5,2.94-1.11,0-1.31,5.32-.24,5.83,1.19a2.08,2.08,0,0,0,1.89.92c1.74,0,4.2,2.79,4.25,4.82a4.93,4.93,0,0,1-1.47,2.82c-1.83,1.83-1.95,4.78-.25,6.05.68.52,4.77,2,9.07,3.32,6.47,2,8,2.15,8.66,1,1.31-2.11,5,.8,6.4,5,1,3,1.66,3.53,5.62,4.27a61,61,0,0,0,11.87.34c6.69-.45,7.74-.25,11.25,2.07,4.23,2.8,4.71,3.77,2.29,4.69a1.59,1.59,0,0,0-1.13,1.86c.65,1.83-1.11,4.75-2.88,4.75-1,0-1.24.45-.73,1.25a6.65,6.65,0,0,1,.86,1.75c0,.28.42,1.55.86,2.84.62,1.81.32,2.67-1.3,3.81q-3.71,2.6-.59,7.06c1.39,2,1.35,2.2-.56,2.81-1.68.53-2,1.19-1.42,3.57.63,2.87.57,2.91-3.69,2.88C570.36,462.89,567.53,462.22,566.47,461.41Z" transform="translate(-12.91 -18)" style="fill:#f4f4f4"/><path id="path7339" d="M433.45,446c-1.56-1.71-2.07-7.51-.92-10.5.34-.89,2.39-2.52,4.55-3.63s4.18-2.65,4.48-3.45,1-1.46,1.51-1.46c1.51,0,9.66-3.9,10.3-4.93,1.25-2,9.14,7.92,8.21,10.35-.32.83.46,2.1,1.89,3,3,2,3.13,4.34.19,5.46a17.22,17.22,0,0,0-5,4c-3.25,3.66-6.3,3.95-12.43,1.17-4.05-1.84-4.31-1.85-7.71-.11S434.89,447.58,433.45,446Z" transform="translate(-12.91 -18)" style="fill:#f4f4f4"/><path id="path7329" d="M595.46,424c-4.47-3.87-7.34-4.93-9-3.3-.42.41-2.18.78-3.92.81s-6.76.38-11.16.79a59.62,59.62,0,0,1-12.42-.08c-3.82-.69-4.56-1.24-5.53-4.11-1.24-3.67-5-7.1-7.91-7.14-1.3,0-1.67.46-1.24,1.59s.18,1.45-.64,1.13c-1.84-.7-12-4-13.51-4.36s-1.73-5.38-.32-5.38c.51,0,1.21-.88,1.56-2,.73-2.33-3.28-8.33-5.1-7.64-.78.31-1.19-.74-1.19-3,0-3.21.2-3.46,2.4-2.91,1.32.33,2.42.25,2.45-.17s.17-2.63.31-4.9a16.67,16.67,0,0,1,2-6.85c1.6-2.45,2.18-2.66,5.94-2.09,3.54.53,4.47.28,6.14-1.65,2.4-2.78,2.1-5.15-1.2-9.47-1.94-2.54-2.35-3.94-1.8-6.06,1.21-4.67.88-8.19-1-10.24-1.72-1.89-1.69-2,.9-3a22.76,22.76,0,0,0,5.88-4c1.77-1.65,4-3,4.92-3,2,0,3.79-2.92,3.79-6.27,0-2.55,3.51-5.16,6.14-4.57,1.65.37,16.48-10.6,17.89-13.23,1-2,.34-2.94-2.15-2.94-2,0-2.75-2.9-3.14-12.88l-.24-6.38-3.5-.28c-1.93-.15-4,.14-4.62.65s-1.57.37-2.37-.6a5.92,5.92,0,0,0-4-1.51c-2.81,0-4-1.49-4-5.08a1.74,1.74,0,0,0-1.85-1.92c-3.13,0-5.15-3.26-5.15-8.32,0-4.64,0-4.66-3.9-5.28s-3.88-.68-3-3.75c1.24-4.34,1.17-4.65-1.11-4.65-1.78,0-1.94-.45-1.39-3.9.81-5.07-2-13.91-5.34-16.64l-2.48-2.05,4.07-2.7c3.52-2.32,4.43-2.54,6.62-1.54,2.45,1.12,3,2.83,2.65,7.58a9.52,9.52,0,0,0,1,4.47,12.84,12.84,0,0,1,1.07,5.53,15.39,15.39,0,0,0,1.85,6.8,16.87,16.87,0,0,1,2,6.23c.06,2.42.16,2.5.93.72.89-2.07,1-1.77,1.4,2.75a4.48,4.48,0,0,0,1.77,2.5,8.41,8.41,0,0,1,2.33,4.25c.5,2.31,1.21,3,3,3,3.16,0,7.62,2,9.47,4.18.89,1.07,3.52,2.05,6.5,2.42,3.52.43,5.59,1.32,7,3,1.71,2,3.23,2.46,10,2.93,11.24.8,10.9.7,13.56,3.65,3.29,3.63,6.57,4.51,7.37,2,.58-1.83,4.39-3.63,5.45-2.58,1.37,1.37-2.28,15.61-5.74,22.43a90.82,90.82,0,0,0-5,11.5c-3.38,11.68-4.19,15.14-4.21,17.93a10.52,10.52,0,0,1-1,4.57c-.86,1.33-1,1.33-1,0,.07-6.23,2.43-16.94,5.41-24.49a90,90,0,0,0,3.55-10c0-.56-.95-1.61-2.11-2.33s-1.81-.84-1.42-.22.36,2.53,0,4.28l-.7,3.18-1.79-2.2c-2.23-2.76-3.57-2.8-4.27-.15-.33,1.26,0,2.28.88,2.61s1.43,1,1.43,1.5-.42.69-.93.37a1.16,1.16,0,0,0-1.56.45c-.35.55-.12,1,.51,1s.91,1,.47,3c-.41,1.85-.2,3.61.53,4.49,1,1.15.9,1.56-.26,2s-1.36,1.84-1,5.76c.38,4.94.32,5.1-1.23,3.2s-1.61-1.64-1.15,4.33c.44,5.73,1.67,10,1.67,5.77,0-1.57.15-1.59,1.55-.19s1.36,2.26.5,5.32a41.91,41.91,0,0,0-1.2,7.77l-.15,4-.7-4.5c-.5-3.17-.75-.75-.85,8.14a114.54,114.54,0,0,0,1.43,21c1.33,7,1.39,9.29.35,14.17-.71,3.34-1.55,5.31-2,4.62-.71-1.14-.93-.69-2.61,5.32-.27,1,0,1.75.58,1.75s1.13-.79,1.21-1.75.46.95.83,4.25a43.16,43.16,0,0,1,.47,6.3C600.24,427.91,598,426.22,595.46,424Z" transform="translate(-12.91 -18)" style="fill:#f4f4f4"/><path id="path7327" d="M379.77,417.94a6.84,6.84,0,0,1-2.33-3.73,7,7,0,0,0-1.86-3.49c-2-1.25-5.61-.87-8.24.86-3.34,2.18-4.32.94-1.57-2,1.81-1.93,2.1-3.12,1.65-6.75a49.57,49.57,0,0,0-1-6c-.57-1.81-10.51-5.24-12.72-4.39-1,.37-1.69-.17-2-1.48a2.67,2.67,0,0,0-2.61-2.06c-1.49,0-2.79-1.41-4.58-4.93-1.37-2.71-2.95-5.21-3.51-5.56s-1-1.85-1-3.35a9.84,9.84,0,0,0-1.43-4.76c-.79-1.12-1.73-4.91-2.09-8.42-.72-7.07-3-12.23-6.87-15.89-2.41-2.25-2.87-2.33-6.67-1.19-4.36,1.31-6.94.36-6.94-2.55s-5.37-12-9.12-15.41c-2.14-2-3.88-4.3-3.88-5.2a12.54,12.54,0,0,0-1.13-4.11c-.74-1.64-.88-5.35-.41-11.05l.72-8.58h5.36c5.28,0,10.25-1.48,11.69-3.48.41-.56.74-3.09.75-5.61,0-3.31.58-5.1,2-6.4,1.59-1.44,1.86-2.57,1.37-5.65-.56-3.49-.41-3.86,1.57-3.86a10.7,10.7,0,0,0,4.24-1.09c1.62-.87,1.91-1.72,1.43-4.16-.65-3.22,1.44-6.75,4-6.75.71,0,1.58-.94,1.95-2.09.63-2,.77-2,3.62.93a14.7,14.7,0,0,0,5.91,3.68,11.42,11.42,0,0,1,5.51,4c3,4,8.21,6.23,9.08,4,.67-1.75,3.49-1.93,5.09-.32.86.85,1.86.84,4,0,3.59-1.49,7.79-.1,8.74,2.9,1.16,3.68,4.57,2,9.12-4.49,3.41-4.87,4.87-6.13,7.85-6.74,2.11-.44,4.45-.34,5.53.23a12.21,12.21,0,0,0,4.79,1c2.23,0,4.1,1.26,7.94,5.31a52.08,52.08,0,0,1,6.74,8.63c1.62,3.14,1.62,3.53,0,7.13a13.29,13.29,0,0,0-1,8.33c.56,3.77.25,5.28-1.88,9.1-2.71,4.86-3.23,8-1.49,9,.67.42.44,1.11-.65,1.9-2.21,1.62-1.49,4.43,2.94,11.56,5.21,8.39,7,10,11.28,10a9.59,9.59,0,0,1,5.54,1.66c2.27,2,2.43,1.89,4.76-4.74,1-2.95,2.27-5.48,2.73-5.64,1.53-.5,4.75,9.13,5.16,15.39l.4,6.18-4.36.62a47.55,47.55,0,0,1-9.86,0c-16.25-1.78-18-1.76-18.68.17-.88,2.35-9.8,11.33-11.27,11.33s-2.89,4-3.25,9.92c-.2,3.31-.75,5.08-1.58,5.08a2.59,2.59,0,0,0-2,1.75,9.51,9.51,0,0,1-2.49,3.25c-2.46,2-4,10.11-4.47,24.18-.26,7.36-.86,12-1.61,12.63C386.68,418.3,381.54,419,379.77,417.94Z" transform="translate(-12.91 -18)" style="fill:#f4f4f4"/><path id="path7323" d="M273.91,335.94a1,1,0,0,0-1.06-1c-.58,0-.78.45-.44,1s.81,1,1.06,1S273.91,336.49,273.91,335.94Z" transform="translate(-12.91 -18)" style="fill:#f4f4f4"/><path id="path7321" d="M512.81,392.69c0-.69,0-5.44.09-10.57.16-8.61,0-9.64-2.52-13.4-2.34-3.53-2.63-4.82-2.23-9.68.43-5.16.21-5.92-2.76-9.6-2.81-3.47-3.2-4.66-3-9a28.73,28.73,0,0,1,1-6.67c.41-1,0-2.77-1-4.31-1.66-2.52-1.64-2.75.29-5.33s2.36-2.67,9.56-2.33c6.85.32,7.65.15,8.68-1.76s.8-2.24-1.48-3.11a15.25,15.25,0,0,0-3.93-1,2.31,2.31,0,0,1-1.9-1.5,3,3,0,0,0-2.67-1.5c-1.29,0-1.83-.43-1.4-1.12s-1.54-3.18-4.57-6c-4.67-4.29-5.2-5.18-4.67-7.84.33-1.64.17-3.26-.37-3.59a3.84,3.84,0,0,1-1-2.84c0-1.31-1.9-4.2-4.57-6.94l-4.57-4.7,6.3-5.41c5.16-4.42,6.64-5.23,8.16-4.42,1,.55,1.92.84,2,.66s1.17-1.77,2.41-3.54c3-4.27,3.08-11.22.19-13.84-1.69-1.53-2.4-1.65-4-.65-2.72,1.7-3.95,1.5-3.95-.65,0-3.06,5.32-7.78,9.54-8.46,4.93-.8,6.48-2.45,7.18-7.64.74-5.55,4-7.36,7.38-4.17,3,2.84,4.25,2.68,7.31-.95,2.46-2.93,2.67-3,4.33-1.33,1.19,1.19,1.36,1.87.55,2.14-5.24,1.74-8.23,7.94-4.32,9,2.51.66,6.43,10.7,5.57,14.28-1.16,4.84-1,5.39,1.45,6,1.68.42,2.09.86,1.25,1.38-.69.42-1.24,2.09-1.24,3.71,0,2.38.43,2.94,2.25,3,3.76,0,4.9,1.48,5.59,7.1.61,5,.89,5.45,3.91,6.34,2.55.75,3.25,1.5,3.26,3.5,0,3.87,1.31,5.25,4.22,4.52,2-.49,2.91-.11,4.14,1.65s1.87,2,2.82,1.08c.66-.66,2.68-1.21,4.47-1.21h3.26l.29,9.25c.27,8.8.4,9.27,2.59,9.58,1.27.18,2.14.85,1.92,1.5-.66,2-15.13,12.67-16.82,12.41-2.92-.44-6.9,2.44-6.9,5,0,3.35-1.76,6.26-3.79,6.26-.94,0-3.48,1.58-5.64,3.5s-4.77,3.5-5.79,3.5c-2.9,0-3.28,2.78-.67,4.89,2.18,1.77,2.26,2.21,1.27,7.07s-.92,5.38,1.78,9.1c1.56,2.16,2.84,4.41,2.84,5,0,2.34-3,3.94-7.41,3.94-5.43,0-7.55,2.42-8.35,9.54-.42,3.7-.82,4.41-2.23,4-2.16-.68-4.45,1.92-3.61,4.1.51,1.34.07,1.55-2.48,1.18-2-.3-3.29,0-3.62.88C516.56,394.29,512.94,394.37,512.81,392.69Z" transform="translate(-12.91 -18)" style="fill:#f4f4f4"/><path id="path7315" d="M499.63,344.62c-.51-1.3-1.31-1.63-2.8-1.15-2.52.8-6.16-2.27-8-6.75-1.2-2.89-1.45-3-6-2.45-4.35.51-4.8.37-5.08-1.63a2.23,2.23,0,0,0-2.3-2.2,2.26,2.26,0,0,1-2.27-1.5c-.42-2.16-17.58-7.42-23.24-7.12-7.82.4-7.46.1-11.53,9.87-1.48,3.54-2,4-3.24,3-.8-.67-3.5-1.45-6-1.75-4.45-.52-4.64-.69-9.38-8.53a76.81,76.81,0,0,1-4.84-8.75c0-.41,1.11-.75,2.49-.75,3.06,0,3.12-.7.32-3.69l-2.18-2.32,2.42-4.25c1.67-2.91,2.64-6.59,3.11-11.74.38-4.12,1-8.94,1.36-10.7.76-3.58-1.05-6.85-7.64-13.8-3.78-4-3.81-4.08-7.47-24.52l-3.67-20.51,3.33-5c1.84-2.74,3.69-5.13,4.13-5.31a1.44,1.44,0,0,0,.79-1.22c0-.49,3.77-6.64,8.38-13.67s8.72-13.9,9.12-15.28a16.67,16.67,0,0,1,3.9-5.55c4.42-4.24,7.34-8.55,8.15-12S446,156,447.29,156c.49,0,1.71-1,2.72-2.13,1.48-1.71,2.47-2,5.12-1.4,3.18.7,10.62,1.29,23.51,1.89,6.66.3,10.27,2.34,10.27,5.79a1.72,1.72,0,0,0,1.75,1.85c1.33,0,1.06.55-1.17,2.33s-2.57,2.55-1.64,3.13a1.53,1.53,0,0,0,2.15-.59c.48-.76.88-.93.89-.38s1.65,1.12,3.64,1.26c3.41.24,10.13,4.55,10.3,6.6a14.27,14.27,0,0,0,2.58,3.82c1.37,1.64,2.5,3.73,2.5,4.65a13.56,13.56,0,0,0,2,4.95,13.54,13.54,0,0,1,2,5.4c0,1.17,1.19,3.69,2.64,5.6s2.71,4.19,2.8,5.09c.32,3.17,2.71,6.7,6.11,9,1.9,1.3,3.45,2.64,3.45,3a12.56,12.56,0,0,0,2.31,3.3,8.69,8.69,0,0,1-.75,11.76L528.23,233l-2.61-2.61c-2.39-2.39-2.83-2.49-5.38-1.27-2.17,1-2.94,2.29-3.52,5.69-1,5.67-2.06,6.84-7.12,7.68S500,248,500,252.19c0,2.26.39,2.75,2.4,2.75,1.34,0,2.74-.48,3.1-1.06s1.3-.48,2.53.63c3.93,3.56.52,13.93-4.57,13.93-2.71,0-14.35,9.13-14.45,11.32,0,.73,1.94,3.37,4.37,5.87,3.7,3.81,4.53,5.39,5.06,9.68.9,7.21,2.15,9.83,5.82,12.15,1.76,1.11,3.19,2.86,3.19,3.89a4,4,0,0,0,2,3,10.21,10.21,0,0,1,2.62,2c.34.47,2.05,1.14,3.8,1.5s3.27,1.1,3.38,1.65c.28,1.43-8.18,1.85-9.83.48-1.86-1.55-5-.41-7.45,2.72s-2.61,6.57-.51,8.31c1.15.95,1.24,1.59.38,2.62a4.05,4.05,0,0,0-.64,3.22,18.5,18.5,0,0,1-.17,5.75C500.5,345.48,500.17,346,499.63,344.62Z" transform="translate(-12.91 -18)" style="fill:#f4f4f4"/><g id="g7461"><path id="path7325" d="M341.91,413.08c0-2.15-3.64-7.14-5.2-7.14-.64,0-.55.6.22,1.53s1,1.76.73,2.06c-.83.82-6.73-5.81-7.38-8.3-.55-2.12-7.37-10.19-7.37-8.73a20.27,20.27,0,0,0,2.18,4.32l2.19,3.62-2.29-2a19.79,19.79,0,0,1-3.83-5,66.8,66.8,0,0,0-6.9-9.11c-2.94-3.36-5.35-6.7-5.35-7.43,0-2-7.34-13.92-8.58-13.94-.59,0-2.15-1.17-3.48-2.57-2-2.1-2.06-2.43-.52-1.84s1.63.38-.4-2.36c-1.25-1.7-2.83-2.88-3.49-2.62a2.64,2.64,0,0,1-2.5-1.08,4.62,4.62,0,0,0-3.08-1.55c-1,0-2.73-1.24-3.86-2.75a55.66,55.66,0,0,0-4.27-5c-3-3-1.61-4,1.8-1.36,1.91,1.5,3,1.82,3.78,1.08,1.78-1.78-.77-4.54-3.87-4.2a6.32,6.32,0,0,1-4-.76,3.06,3.06,0,0,0-2.73-.52c-.79.3-2.28-.38-3.31-1.52-1.67-1.84-1.74-2.46-.59-5.63.94-2.6,1-3.87.19-4.67s-1.1-.36-1.1,1.6c0,1.49-.45,2.7-1,2.7s-1-.71-1-1.57a5.29,5.29,0,0,0-1.51-3.08c-2.12-2.12-.93-3.46,2.07-2.32,2.28.86,2.4.78,1.43-1-.59-1.1-1.42-2-1.85-2s-2.28-1.33-4.11-3-3.67-2.75-4.1-2.49-1.61-.59-2.64-1.89a10.4,10.4,0,0,0-4.1-3.09c-1.22-.38-2-1.05-1.74-1.48s-.41-1.73-1.49-2.89a7.12,7.12,0,0,1-2-3.65c0-2-1.89-2-2.67,0-.49,1.27-.78,1.32-1.46.25s-.85-.94-.86.39-.38,1.56-2.46.61c-3.21-1.46-3.94-3.58-1.5-4.35,2.07-.66,2.54-2,1-2.94-.5-.31-1.1,0-1.33.68-.33,1-1,1-3.25-.05-2.54-1.15-2.7-1.12-1.55.27,2.34,2.82-.76,1.7-4.19-1.51-3.11-2.92-3.15-3-.76-2.45l2.5.62L228,291c-1.94-1.69-2.15-2.33-1.13-3.55s1-1.81,0-3-.8-2.35.93-5.92a22.48,22.48,0,0,1,3.74-5.77c1.41-1.17,1.51-1,.89,1.17l-.71,2.49,1.92-2.39,1.92-2.38.66,2.63c.37,1.45,1.08,2.64,1.58,2.64s.56-1.22.07-2.92c-.8-2.8-.56-3.09,6.51-7.56,7.7-4.89,14.88-11.85,16.45-16,.9-2.37,1-2.4,4.06-.88,2.52,1.26,3.64,1.34,5.7.4,1.41-.64,2.87-.81,3.26-.37.95,1.1,4.78,16.73,5.51,22.47s1.7,6.59,8.57,7.57c5.05.73,5.44,1,5.76,3.75.18,1.63,1.87,4.66,3.75,6.74,3.74,4.14,3.93,5.41,2.39,16-.77,5.34-.66,7.64.51,11a28.9,28.9,0,0,1,1.49,5.69c0,.79,1.76,3,3.89,5,2.31,2.12,5.34,6.69,7.51,11.31,3.85,8.18,4.38,8.54,10.28,6.85,2.74-.79,3.47-.56,5.62,1.75,2.64,2.83,6,9.28,5.57,10.76-.53,1.9,1.4,10.92,2.74,12.83a9.68,9.68,0,0,1,1.41,4.72c0,1.5.46,3,1,3.35s2.14,2.85,3.51,5.56c1.75,3.45,3.11,4.93,4.52,4.93a2.55,2.55,0,0,1,2.08,4.27,5.22,5.22,0,0,0-1.13,3.21,9.35,9.35,0,0,1-1.62,4.39c-1.6,2.27-1.54,7.25.13,11.38.58,1.44.16,1.75-2.41,1.75C342.65,414.94,341.91,414.5,341.91,413.08Z" transform="translate(-12.91 -18)" style="fill:#f4f4f4"/><path id="path7307" d="M264.26,329.7c-1.84-3-5.26-10.19-5-10.48.54-.54,5.24,7.07,5.85,9.47S265.43,331.59,264.26,329.7Z" transform="translate(-12.91 -18)" style="fill:#f4f4f4"/></g><path id="path7297" d="M306.16,296.21c-3.21-.29-4.25-.81-4.25-2.11,0-.94-1.54-3.3-3.42-5.23s-3.56-4.79-3.75-6.47c-.31-2.74-.72-3-5.83-3.81-3-.47-6-1.29-6.69-1.82s-1.49-3.52-1.86-6.65a113.65,113.65,0,0,0-2.86-13.68l-2.2-8-5.05.31c-4.72.29-5.34,0-9.23-3.7l-4.17-4,.67-8c.45-5.33.32-8.05-.36-8.05s-1.91-1.69-3-3.75-3-5.72-4.27-8.14a22.29,22.29,0,0,1-2.44-8.5l-.07-4.11,7.75.32c8.67.35,8.74.28,6.7-7-.63-2.26-.69-4.44-.15-5.5s.63-7.27.3-14c-.58-11.69-.52-12.23,1.4-12.5,1.69-.25,2.11-1.35,2.75-7.29,1.32-12.21,1.28-27.81-.06-30.22-.68-1.23-2-8.33-3-15.79-2-15.5-1.84-16.11,4.79-15l4,.68V85c0-6.89.32-9.09,1.32-9.09.73,0,11.2.66,23.25,1.47s25.43,1.6,29.72,1.75l7.8.28,2.37,5c2.3,4.82,8.32,12.5,9.81,12.5.77,0,4.73,3.71,4.73,4.42a83,83,0,0,0,6.5,7.12c3.57,3.68,6.5,7,6.5,7.47s1.21,1.08,2.69,1.45c3.51.88,11,9,11.87,12.81a27.14,27.14,0,0,0,2.7,6.46,15,15,0,0,1,1.92,7,19.94,19.94,0,0,0,1.34,7,19.6,19.6,0,0,1,1.49,5.15c0,.9,2.7,3.6,6,6s6,4.73,6,5.19c0,1.85,4.7,5.72,7.76,6.39,1.79.39,3.7,1.54,4.24,2.55a6.48,6.48,0,0,0,3.92,2.48,8.91,8.91,0,0,1,4.22,2.19,16.1,16.1,0,0,0,7,3.75c2.17.27.78,3-9.65,18.69-6.35,9.57-11.92,18.07-12.37,18.89s.52,8.83,2.47,19.5c4.26,23.22,4.28,21.94-.36,21-11.67-2.34-12.39-2.07-19.46,7.41-4,5.41-5.12,5.85-6.59,2.63-1.36-3-5.52-4.25-9.34-2.8-2.16.81-3,.73-3.95-.35-1.52-1.83-3.4-1.77-5.34.17-2.13,2.13-5,1.05-8.14-3.07a11.61,11.61,0,0,0-5.49-4,13.61,13.61,0,0,1-5.68-3.57c-3.06-3.24-4.76-3.67-5.62-1.42a2.36,2.36,0,0,1-1.86,1.53c-2.29.06-5,4.91-4.55,8.09.49,3.38.12,3.76-4.19,4.27-4,.47-4.08.52-3.1,4.84.67,3,.48,4-1.06,5.38-1.32,1.19-1.89,3.08-1.9,6.3,0,2.52-.34,5-.75,5.61-.83,1.16-6,3.57-7,3.31C310.72,296.67,308.49,296.42,306.16,296.21Z" transform="translate(-12.91 -18)" style="fill:#f4f4f4"/><path id="path7397" d="M792.59,690.28c-4.5-4.22-9.31-8.77-10.68-10.13-2.47-2.43-2.48-2.46-.25-1.93,1.32.31,2,.13,1.65-.43-.61-1-4.59-2.76-7.59-3.37-3.18-.64-5.39-2.33-11-8.4-3.09-3.34-6.17-6.08-6.84-6.08-.87,0-.92-.36-.17-1.26s.4-1.57-1.45-2.44c-2.14-1-2.33-1-1.3.26,2.41,2.91-1.08,1.44-7.23-3-3.37-2.46-6.63-4.71-7.23-5s-.69-.71.16-1.11c1.93-.9,1.47-2.42-.73-2.42-1.35,0-2.17-.87-2.58-2.75a43.89,43.89,0,0,0-2.13-6.41c-1.47-3.51-1.4-4.07,1.71-13.5a105.71,105.71,0,0,1,4-10.84,14,14,0,0,0,1.38-3.73,7.19,7.19,0,0,1,3.45-4.18,10.44,10.44,0,0,0,5.18-9c0-1.25,1.15-3.37,2.57-4.69,1.85-1.75,2.43-3.12,2.08-4.93-.68-3.47,2.09-9,4.5-9,3,0,5.58,3.12,6.18,7.53.92,6.76,2.35,9.47,5,9.47a6.58,6.58,0,0,1,4.18,2c1,1.1,2.3,2,2.9,2,1.38,0,4.76-3.55,7.21-7.55,3.44-5.61,7.23-9.43,9.36-9.43a10.41,10.41,0,0,0,4.62-1.65c2.43-1.59,2.68-1.54,7,1.5,2.46,1.73,4.9,3.15,5.41,3.15,1.67,0,3,3.59,1.8,4.81-1.61,1.61.35,3.59,5.11,5.16,2.16.71,3.74,1.8,3.51,2.41s1.71,2.46,4.33,4.09a55.7,55.7,0,0,1,9,7.37c2.71,2.83,4.76,4.19,5.75,3.81s1.54-.18,1.54.31,1.49,1.38,3.32,2c3.37,1.12,6.84,4.86,8.06,8.71.41,1.29,2.42,2.77,5.2,3.83,4.31,1.65,4.45,1.82,2.87,3.57-1.17,1.3-1.56,3.15-1.31,6.26l.36,4.41-16.5.66c-9.08.36-19.1.93-22.28,1.27l-5.77.62L811,653.32c-3.25,6.12-6.31,11.59-6.81,12.16a5.88,5.88,0,0,0,.28,8.48c2.53,2.38,3.23,5.83,1.52,7.53-.84.85-1.09,3.51-1.06,11.35,0,2.53-1.58,5.1-3.17,5.1C801.2,697.94,797.1,694.49,792.59,690.28Z" transform="translate(-12.91 -18)" style="fill:#f4f4f4"/><path id="path7395" d="M647.64,661.81A31.89,31.89,0,0,0,641,660a29.91,29.91,0,0,1-9.14-3.67c-3.2-2.11-5.92-2.89-12.28-3.5-4.49-.43-9.89-1-12-1.19a12.09,12.09,0,0,1-6.5-2.93c-4.91-4.61-9.44-6.72-14.44-6.72-2.62,0-4.75-.29-4.75-.64a9.74,9.74,0,0,1,2.25-2.93c1.23-1.26,2.7-2.77,3.25-3.35s3.38-3.2,6.29-5.82l5.29-4.77-.93-4.87c-.75-3.9-1.84-5.69-5.45-9-5.27-4.83-6.55-8.34-6.81-18.66-.23-9.32,1.1-12,6-12a23.92,23.92,0,0,1,6.76,1.2c4.48,1.62,6.31,0,4.29-3.76-1.2-2.24-1.19-3,.1-5.26,1.87-3.34,4.93-4.15,4.93-1.31a3.44,3.44,0,0,0,1.06,2.67,7.45,7.45,0,0,1,2,3.06c1.11,2.9,2.54,3.07,3.92.48.9-1.67,2.07-1.9,9-1.77,6.6.13,8.42-.19,10.69-1.88,3.23-2.42,9.25-12.93,9.32-16.29,0-1.72.47-2.19,1.63-1.75a9,9,0,0,0,2.46.61c1.52,0,5,4.3,5,6.19,0,1,.47,1.81,1.05,1.81s1.53,1.38,2.12,3.07c1.22,3.51,4.12,4.93,10,4.93,2.71,0,4.52.59,5.4,1.75,1.8,2.37,1.74,7.72-.09,9.24-1.56,1.3-1.29,4.58.71,8.72,1.56,3.23,9,4.25,12.08,1.65s9.59-5.8,10.37-5c.36.36.14.66-.51.66-4.14,0,3.27,9.73,9.09,11.92,1.75.66,2.75,1.77,2.75,3.06,0,1.11.56,2,1.25,2,6.05,0,33.13,1,33.34,1.25s-1.73,5.78-4.17,12.52L731.88,632l2,3.95c2.14,4.19,2.59,7,1.12,7-.49,0-1.16-.7-1.49-1.56s-1.09-1.26-1.7-.88-2.39-.28-4-1.44c-3.41-2.52-3.94-2.6-3.94-.59a2.52,2.52,0,0,0,1.75,2.12c4.46,1.5,11.25,4.78,11.25,5.44,0,.4-3-.57-6.75-2.15s-8.33-2.9-10.25-2.93c-4.37-.05-7-1.42-4.5-2.37a3.48,3.48,0,0,1,2.59-.08c.5.31.91.1.91-.46s-.94-1.53-2.09-2.14c-1.64-.88-2.45-.78-3.83.46-2.32,2.1-3.08,2-3.08-.45,0-3.07-2.73-3.53-4.91-.83s-1.75,4.19,1.24,3.29c1.48-.45,1.85-.33,1.17.38a7.83,7.83,0,0,1-3.5,1.49c-1.38.26-.25.3,2.5.11,3.45-.25,4.53-.06,3.5.6-.83.53-4.26,1-7.62,1-5.82,0-6.32.21-10,4-2.14,2.2-4.69,4-5.67,4a9.87,9.87,0,0,0-4.23,1.6,24,24,0,0,1-6.45,2.51,35.67,35.67,0,0,0-8.77,3.81,28.82,28.82,0,0,1-8.26,3.48C651.15,662.59,649.18,662.67,647.64,661.81Z" transform="translate(-12.91 -18)" style="fill:#f4f4f4"/><path id="path7393" d="M578.28,639.48c-.32-.84-1-1.54-1.54-1.54s-2-1.28-3.35-2.84c-1.95-2.32-3.22-2.85-6.88-2.91-3.14-.05-5.18-.71-6.78-2.2-1.26-1.18-2.45-1.67-2.64-1.09-.57,1.7-3,1.19-5.09-1.09-1.52-1.63-2.71-2-5-1.54-1.66.33-3.25.22-3.54-.24-.7-1.13-4.55-2.1-4.55-1.15,0,.42,1,1.24,2.25,1.84,2.22,1.07,2.22,1.09.12,1.15a4.83,4.83,0,0,1-3.44-1.51,27.53,27.53,0,0,0-6.37-4.11,43.76,43.76,0,0,1-6.87-4.13c-1.4-1.23-2-1.32-2.58-.35-.76,1.22-4.11.62-4.11-.74,0-.38-1.53-.74-3.4-.79s-6.86-1.72-11.09-3.7a66.54,66.54,0,0,0-8.6-3.6c-.5,0-.91-.65-.91-1.46s-2-2.64-4.5-4.09-4.5-3.22-4.5-3.93c0-1.63-4.17-4.4-7.76-5.14-1.7-.35-4-2.27-6.1-5.07-3.35-4.5-9.15-7.9-11.76-6.9-1,.39-1.38-.39-1.38-2.91,0-2.77.55-3.73,2.82-4.91,4.7-2.43,5.62-4.11,4.17-7.61-1.09-2.62-1-3.3.53-5,2.3-2.55,6.92-2.53,9.49,0,1.65,1.66,2.75,1.89,6.25,1.32,7.7-1.26,16.87-.53,27.89,2.21,2.14.53,2.78.25,3.32-1.46a14.54,14.54,0,0,0,.39-4.85c-.31-2.91.66-5.23,2.18-5.23,1.23,0,4,6.62,4,9.6,0,1.72.72,2.54,2.65,3,2.19.55,3.12.11,5.25-2.49s3.3-3.16,6.73-3.15c3.59,0,4.28-.36,5.29-2.81s1.62-2.75,4.26-2.37a9,9,0,0,1,7.27,6c.81,2.55,4.16,3.71,6.09,2.11.8-.66,1.46-.8,1.46-.3,0,1.24,9.72,11.34,10.92,11.34a4.24,4.24,0,0,1,2.28,1.75c1.63,2.16,5.24,4.25,7.33,4.25.86,0,2.71,1.16,4.13,2.57,2.44,2.44,2.54,3,2,10.25-.43,5.85-.22,8.14.89,9.62a7.71,7.71,0,0,1,1.45,3.75c0,1,.37,1.81.82,1.81s2.41,1.46,4.37,3.25c2.79,2.55,3.68,4.26,4.15,7.91.57,4.45.42,4.82-3.29,8.17a42.4,42.4,0,0,1-6,4.62c-1.15.62-2.09,1.7-2.09,2.4s-1.36,2.28-3,3.5C579.32,640.7,578.79,640.8,578.28,639.48Z" transform="translate(-12.91 -18)" style="fill:#f4f4f4"/><path id="path7389" d="M824.57,597.27a3.85,3.85,0,0,1-.66-2.29c0-1-1.64-2.23-4.25-3.2-3.41-1.26-4.2-2-4-3.77.3-2.68-1.38-6-3-6.11-.67,0-2.77-1.37-4.68-3-3.73-3.19-7.44-3.73-10.38-1.5a4.08,4.08,0,0,1-3.35.83c-1.55-.6-4.37,2.22-8.72,8.71-3.26,4.87-6.13,8-7.33,8a4,4,0,0,1-2.25-1.5,5.25,5.25,0,0,0-3.57-1.5c-3,0-3.39-.78-4.1-7.22-.69-6.28-3.65-9.78-8.26-9.78-2.38,0-3.37.67-4.64,3.14a10,10,0,0,0-1.08,5.87c.41,2,0,3.3-1.79,4.93a12.21,12.21,0,0,0-3,5.38l-.7,3.18-1-2.5c-2.11-5.17-3.7-7.53-5.79-8.62-3.73-2-8.79-8.26-9.31-11.64a44.08,44.08,0,0,0-1.18-5.33c-.52-1.59,0-2.51,2.09-3.9,1.89-1.23,2.9-1.45,3.16-.66.55,1.64,1.58,1.43,4.22-.85a8.07,8.07,0,0,1,4.09-2,3.21,3.21,0,0,0,2.5-1.14c.68-1.12-1.07-.92-6.25.71-1.67.53-1.66.47.09-.64,2.08-1.33,14.48-3.94,18.57-3.91,1.79,0,2.11.26,1.13.88-1.14.72-1.14.93,0,1.31a2.94,2.94,0,0,0,2.66-.85,14.31,14.31,0,0,1,5-2.32,19.78,19.78,0,0,0,6.75-3.78c2.85-2.58,6.86-5.26,7.88-5.26.25,0,.59,1.46.76,3.25.29,3,.61,3.27,4.32,3.55,4.86.37,6.49,2.28,6.51,7.64,0,5.08.5,5.79,5.67,8.41,2.3,1.17,4.46,2.58,4.81,3.14.75,1.22,7.47,1.32,9.34.13a3.52,3.52,0,0,0,1-3.23c-.27-2,.16-2.45,2.34-2.7,1.47-.17,4.49.62,6.71,1.75a20.1,20.1,0,0,0,7.47,2.06c2.14,0,3.65.57,4,1.51s.89,6.91,1.26,13.5l.68,12h-6.49C828.16,597.94,824.94,597.64,824.57,597.27Z" transform="translate(-12.91 -18)" style="fill:#f4f4f4"/><path id="path7387" d="M447.91,582.44a23.51,23.51,0,0,0-6.42-1.42c-1.6,0-5-1.38-7.5-3a36.36,36.36,0,0,0-10.06-4c-5.6-1.17-14-5.42-14-7.08,0-.5-1.28-2.4-2.83-4.2-4.24-4.92-4.54-6.57-1.78-9.85a20.55,20.55,0,0,0,2.78-4c.2-.61,1.84-1.14,3.63-1.19s3.51-.49,3.81-1,2-.6,3.82-.26c2.85.53,4,0,8.91-4,3.1-2.53,6.56-4.59,7.7-4.59,3,0,8.1-5.92,7.74-9-.23-2.05-.78-2.46-3-2.31s-2.75-.23-2.75-2a5.4,5.4,0,0,0-1-3.28c-.72-.71-.72-1.88,0-3.76a17.64,17.64,0,0,0,1-3.47c0-1-6.74-3.92-10.81-4.74-3.61-.72-3.78-1.11-1.74-4,1.07-1.53,2.95-2.23,7.11-2.66a21.68,21.68,0,0,0,9.45-3.1c2.82-1.87,5.75-2.68,11.46-3.2l7.67-.7,2.87,3.15c3.35,3.67,4.83,3.88,8,1.14,4.19-3.63,9-1.55,9,3.9A4.64,4.64,0,0,0,488,507.9c3.94-2.11,9.21-2,11,.21,1.2,1.51,3,2,7.8,2.22,5.2.21,6.76-.13,9.39-2.07,3.42-2.52,7.66-3,9.56-1.12,1.44,1.45,1.61,7.8.2,7.8-.55,0-1,.86-1,1.92s-.4,2.06-.89,2.25-1.33,4.94-1.86,10.58c-1.08,11.43-5.32,23.17-8.4,23.22-2.1,0-2.85,2.07-2.85,7.72,0,3.93-.23,4.43-1.75,3.78-4-1.72-12.41-2.78-22.66-2.87-7.77-.07-11-.46-11.34-1.35-.7-2.09-8.66-1.56-10.72.72-1.64,1.8-1.71,3.2-.42,8,.22.81-1.24,2.51-3.36,3.92-3.38,2.24-3.75,2.92-3.75,6.82,0,4.08-.16,4.33-2.75,4.26A23.5,23.5,0,0,1,447.91,582.44Z" transform="translate(-12.91 -18)" style="fill:#f4f4f4"/><path id="path7379" d="M559.91,563.94c-2.26-3.16-5-4-5-1.53,0,.89-.59,1.24-1.5.89a2.35,2.35,0,0,1-1.5-2,5.51,5.51,0,0,0-2-3.11,6.24,6.24,0,0,1-2-2.43c0-.39,1.8-2.8,4-5.34s4-5.32,4-6.17c0-1.24.75-1.42,3.75-.91,8.68,1.5,9.25,1.72,9.25,3.66,0,1.53.71,1.92,3.51,1.92,3.25,0,3.41.14,2.25,2-1,1.6-1,2.4,0,4,.75,1.19.84,2,.25,2s-1,1.58-1,3.51c0,3.31-.13,3.44-2.13,2.25-1.72-1-2.22-1-2.59,0s-5.32,4.23-6.67,4.23A11.78,11.78,0,0,1,559.91,563.94Z" transform="translate(-12.91 -18)" style="fill:#f4f4f4"/><path id="path7377" d="M520.57,565.27a4.83,4.83,0,0,1-.66-2.71,24,24,0,0,0-1.59-6.2c-1.54-4-1.51-4.29,1.08-9.4,2-3.87,2.91-7.79,3.61-14.89,1-9.7,2.4-15.13,4-15.13.48,0,.88-2,.88-4.43s.62-5.05,1.45-5.88,1.16-1.75.79-2.11.36-.92,1.61-1.25,2.06-1.13,1.73-2c-.72-1.88.39-1.71,3.92.63a13.38,13.38,0,0,0,6.21,2c3.58,0,4.71,1.43,5.81,7.28.64,3.41,1,3.73,4,3.73,2.43,0,3.41-.51,3.79-2,.56-2.13,5.23-4.43,6.9-3.39.56.34.78,1.84.48,3.32-.54,2.68-.51,2.7,5.11,2.63,5.3-.06,5.72.11,6.64,2.7.84,2.37.65,3-1.32,4.38-1.79,1.25-2,1.79-.94,2.44,2,1.21,2.58,20.83.69,22-2.43,1.54-4.84,1-4.84-1.12,0-1.11-.67-2-1.5-2-1.07,0-1.51-1.09-1.52-3.75a15.47,15.47,0,0,0-1.42-6.25c-.78-1.37-2.18-4-3.1-5.75-1.75-3.37-3.46-4.28-3.46-1.85,0,.76-1.41,2.9-3.13,4.74-3.07,3.29-3.11,3.43-1.9,8.13,1.36,5.32,1,6.23-4.92,12.59-2.71,2.9-3.57,3.27-6.46,2.72s-3.45-.33-4.58,2.4-1.71,3-5.57,3c-3.64,0-4.64.46-6.44,3C523.84,565.84,522,566.66,520.57,565.27Z" transform="translate(-12.91 -18)" style="fill:#f4f4f4"/><g id="g7472"><path id="path7383" d="M837.73,573.8c-.3-3.16-.58-3.39-4.82-3.93a35.08,35.08,0,0,1-9.21-2.93c-4-2-5.09-2.18-7.35-1.15s-2.53,1.67-2,3.68c.58,2.3.37,2.47-3.13,2.47-4.68,0-14-4.72-14.71-7.48a27.78,27.78,0,0,1-.56-5.57c0-4.54-1.49-5.95-6.19-5.95-3.2,0-3.88-.38-4.41-2.5-1.25-5-.21-5.58,9.09-5.36,5.52.13,8.91.65,9.6,1.49,2.08,2.51-.06,3.48-6.19,2.78-4.3-.48-5.91-.34-5.91.53s.76,1,2,.55c1.12-.36,4.43.1,7.34,1,4.9,1.54,5.27,1.87,4.83,4.33l-.48,2.66,2-2c1.1-1.1,1.81-2.34,1.57-2.75-.62-1.08,3.11-.92,6.24.27,2.42.92,2.64.82,2.17-1-.4-1.55.2-2.22,2.79-3.07,4.91-1.62,6.82-7,3.37-9.37-1.16-.81-1.8-2-1.44-2.54s.06-.84-.89-.47-1.55,1-1.55,1.49a1,1,0,0,1-1,.89c-2.33,0-.63-2,5-5.86,3.32-2.28,6.44-4.14,6.95-4.14s3.1-2.18,5.77-4.85c4.71-4.7,4.89-5.1,6-13.17.89-6.73,1.54-8.65,3.38-10,2.14-1.61,2.26-2.37,2.14-12.59-.08-6,.29-11.54.8-12.36.71-1.11,1-.66,1,1.76,0,3.21.07,3.25,4.82,3.25,2.64,0,5.22-.42,5.75-.93s5.33,4.08,12.58,12.35l11.64,13.27,1.58,11.4c1.77,12.75,5.24,54.68,4.58,55.27-.24.21-9.88.91-21.43,1.54s-23.33,1.42-26.18,1.74l-5.18.57Z" transform="translate(-12.91 -18)" style="fill:#f4f4f4"/><path id="path7373" d="M809.41,545.48a19.69,19.69,0,0,1,5.16-2.51,2.06,2.06,0,0,0,1.67-1.28c.28-.69.54-.76.59-.17.14,2-4.87,5.74-8.16,6.09l-3.26.34Z" transform="translate(-12.91 -18)" style="fill:#f4f4f4"/></g><path id="path7369" d="M559,542c-2.83-.44-3.59-1.09-4.25-3.67s-.37-3.6,2.66-6.91,3.54-3.59,4.15-1.87a13.25,13.25,0,0,0,2,3.47,12,12,0,0,1,1.79,5.15C565.85,542.22,564.76,542.88,559,542Z" transform="translate(-12.91 -18)" style="fill:#f4f4f4"/><path id="path7367" d="M589.89,537.45c-1.38-.73-4-3.38-5.8-5.9-2.38-3.32-3.88-4.51-5.48-4.34s-2.28-.38-2.52-2c-.3-2.07.07-2.25,4.56-2.25,2.68,0,5.73-.62,6.77-1.38a3.32,3.32,0,0,1,3.44-.56,21,21,0,0,0,4.36,1.42,7.36,7.36,0,0,1,4.5,3.56c.93,1.63,2.26,2.75,3,2.49,1.13-.43,5.23,2.69,5.23,4,0,.28-1.12.5-2.49.5a4.78,4.78,0,0,0-3.7,1.93c-1,1.52-1.61,1.71-3.1.92s-2.39-.56-4.06,1C592.66,538.55,592.11,538.63,589.89,537.45Z" transform="translate(-12.91 -18)" style="fill:#f4f4f4"/><path id="path7365" d="M578.29,520.19c-1.89-6-2.14-6.25-7.36-6.25-4.71,0-5-.16-5-2.53,0-1.39-.66-2.78-1.47-3.09-2.37-.91-7,1.07-8,3.47-1.63,3.62-4.82,2.37-6-2.35-1.41-5.62-2.19-6.49-5.81-6.53s-11.46-4.38-9.78-5.42c.6-.36,1.09-2.33,1.1-4.36,0-3.45.35-3.86,5.25-6.3,3.57-1.78,5.14-3.14,4.94-4.26-.16-.91,1.08-4.15,2.75-7.2s3-6.2,3-7c0-1.16.37-1.22,1.86-.28s2.36.79,4.43-.75a13.36,13.36,0,0,0,3.63-4.18c1-2.08,1.26-2.15,3.32-.87,1.24.78,4.67,1.68,7.61,2l5.36.58-.4-3.43c-.26-2.17.06-3.62.86-3.93,1.65-.63,2.5.82,1.7,2.89-.87,2.29,3.44,6.74,5.81,6,1-.31,1.82-.15,1.82.38s.93,1.19,2.06,1.49c2,.51,2,.69.51,3.55-.86,1.66-1.29,3.72-1,4.58.7,1.82,0,2-2.64.54-1.55-.82-2.21-.54-3.55,1.5-.91,1.39-2.28,2.52-3,2.52a1.5,1.5,0,0,0,0,3c1.21,0,1.2.44-.08,3-1.67,3.36-1,8.8,1.17,9.64,2,.75,5.3-1.35,10-6.27s6-5.3,7.47-2.5c.82,1.53.32,2.59-2.71,5.72-2,2.12-4.36,3.86-5.14,3.87-2.47,0-2.3,2.35.31,4,2.1,1.38,2.42,2.19,1.93,4.82a12.2,12.2,0,0,1-2,4.74,8.11,8.11,0,0,0-1.36,4.53c0,2.21-.74,3.4-2.91,4.68C583.2,522.47,579,522.46,578.29,520.19Z" transform="translate(-12.91 -18)" style="fill:#f4f4f4"/><path id="path7349" d="M404.66,466.18c-1-.21-1.75-.77-1.75-1.24s-1-1.17-2.14-1.54-1.68-1-1.14-1.32,1.53-2.3,2.19-4.33a23.76,23.76,0,0,1,3-6c2.47-3.14,5-9.46,4.22-10.36-.36-.39.5-.44,1.93-.1,5.51,1.32,13-8.75,13.3-17.77.1-3.66-.12-4-3.32-4.82-4.9-1.28-8.07.6-8.07,4.8,0,3.81-1.78,5.58-4.81,4.79-2.63-.69-2.65-1.07-.55-8.56,1.57-5.61,1.56-5.91-.25-7.28-2.81-2.13-3.09-1.94-4.89,3.49-.91,2.74-2.07,5.24-2.58,5.56-1.16.71-1.2.93.91-5.17,1-2.82,2.54-5.89,3.47-6.83,3-3,1.8-4.11-5.3-4.8-2.15-.21-2.55.21-2.82,3-.18,1.94.15,3.25.82,3.25s1,1,.82,2.25c-.25,1.77-.86,2.18-2.82,1.9a5.49,5.49,0,0,1-3.27-1.5c-1.16-1.72-.17-19.31,1.45-26,.78-3.23,2.19-6.43,3.12-7.11a4,4,0,0,0,1.7-2.38c0-.63,1.13-1.14,2.51-1.14,2.38,0,2.49-.23,2.09-4.75-.6-6.91.23-9.83,3.25-11.38a16.81,16.81,0,0,0,4.55-3.73c1.05-1.29,2.67-3.09,3.59-4a11.19,11.19,0,0,0,2.36-3.51c.59-1.62,1.4-1.79,5.91-1.29,2.88.33,7.26,1,9.74,1.42a47.63,47.63,0,0,0,10.5.28l6-.54.29-6.66a25.42,25.42,0,0,0-2.15-12.68c-1.35-3.31-2.19-6.28-1.88-6.59,1.13-1.12,10.82-.45,14.74,1a50.71,50.71,0,0,0,9.25,2.9c1.85.43,3.25,1.38,3.25,2.22a2.31,2.31,0,0,0,1.79,1.94,5,5,0,0,1,2.75,2.65c.82,1.89,1.61,2.15,5.71,1.86,2.94-.21,4.75.08,4.75.75s1.65,2.91,3.67,5.14c2.9,3.21,4.17,3.95,6,3.49,3.26-.82,3.11,2.14-.19,3.64a6.69,6.69,0,0,0-3.33,4.23c-.68,2.55-1.27,3-3.41,2.81-3-.32-4.21,2.06-3.18,6.17.56,2.21-.48,3.82-7.21,11.24-7.79,8.6-11.9,11.36-16.88,11.36-3.3,0-11.07,3.52-11.77,5.33-.29.76.32,2.11,1.37,3,1.38,1.18,1.73,2.4,1.31,4.53-.92,4.59,1.95,9.33,7.68,12.68,2.92,1.7,5.25,3.86,5.57,5.15.8,3.16,3.17,5,3.92,3a2,2,0,0,1,2.37-1c2.2.58,7.08-3.71,7.08-6.21,0-1.71.08-1.71,2,0,2.48,2.25,2.62,7.05.25,8.39-1.67.94-1.67,1.14,0,4.3,2.26,4.25,1.44,11.17-1.81,15.26L478,442.31l-3.3-3.23c-1.9-1.85-4.15-3.12-5.32-3-3.12.37-6.51-2.31-6.52-5.15,0-1.56-1.66-4.29-4.39-7.25-3.71-4-4.55-4.52-5.59-3.27-1.6,1.92-6.83,4.51-9.13,4.51a3.82,3.82,0,0,0-2.88,2,10.66,10.66,0,0,1-3.94,3.48c-5,2.6-6.07,4.29-6,9.85,0,4.87,1.56,8.61,3.58,8.74,1.78.11,5.52,5.94,5,7.72-.32,1-2.45,3.24-4.75,5-4.26,3.27-8.84,4.06-19.82,3.41a19.79,19.79,0,0,0-6,.61A10,10,0,0,1,404.66,466.18Z" transform="translate(-12.91 -18)" style="fill:#f4f4f4"/><g id="g7483"><path id="path7391" d="M706.91,602.82c0-1.29-1.14-2.46-3.25-3.35a25.76,25.76,0,0,1-6.74-5c-2.74-2.85-3.19-3.81-2.11-4.48,1.67-1,.73-4.06-1.25-4.06a4.2,4.2,0,0,0-2.65,1.5,4.33,4.33,0,0,1-2.82,1.5c-.87,0-2.78,1.16-4.25,2.57-6.48,6.2-15.5-2-10.32-9.42,1.37-2,1.43-2.93.38-6.66-1.39-5-2.17-5.47-7.86-4.93-2.3.23-4.13,0-4.13-.58s-.9-1-2-1-2-.67-2-1.5a6.65,6.65,0,0,0-2-3.5,6.83,6.83,0,0,1-2-3.25c-.06-2.2-2.44-4.5-6.38-6.15-5.22-2.18-5.85-2-5.16,1.15.4,1.86-.09,3.86-1.52,6.19l-2.12,3.44L637,563.09c-1.61-2.14-1.83-2.16-5.36-.69s-3.74,1.43-4.72-.39a9.05,9.05,0,0,1-1-3.42c0-.85-1.33-1.78-3.07-2.16-4-.88-4.6-2.74-2-6.36a12.24,12.24,0,0,0,2.1-5.94c0-2.65.49-3.15,4.25-4.34,5.72-1.81,5.94-4.91.44-6s-7.38-2.4-8-5.41c-.67-3.5,3.72-15.32,7-18.86,2.05-2.21,2.27-2.91,1.16-3.62a6,6,0,0,0-2.51-.89,9.81,9.81,0,0,1-3.66-2c-2.57-2-5.72-1.8-5.72.41,0,2.57-2.15,3.45-4,1.62a11.33,11.33,0,0,0-2.76-2.15c-.61-.23-.7-2.13-.25-4.88.4-2.47.79-4.13.86-3.68s1.46-.13,3.08-1.29c3.4-2.42,3.2-3.86-.9-6.19a5.64,5.64,0,0,1-3.23-5c-.28-2.85-.66-3.29-2.65-3-2.8.39-6.17,3.55-6.17,5.79,0,1.33-.28,1.4-1.5.38s-2.13-.76-5,1.45a26.46,26.46,0,0,0-5,5,11.09,11.09,0,0,1-4,3.43c-2.27,1-2.61.89-3.5-1.47-.79-2.08-.58-3.34,1-6l2-3.41-2.24-.9c-1.52-.61-1.71-.92-.61-1a4.87,4.87,0,0,0,3.06-2.2c1.18-1.78,1.77-2,3.49-1,2.45,1.32,3.33.67,3.33-2.44a14,14,0,0,1,1.14-4.8c.89-1.94.86-2.87-.11-4-.69-.83-1.66-1.27-2.15-1s-.88-.18-.88-1.08c0-1.19-.56-1.45-2.07-1-2.69.86-5.89-1.95-5.21-4.56.27-1-.43-3.7-1.56-5.87L578,450.08l2-2.58a5.87,5.87,0,0,0,1.37-5.54,6.36,6.36,0,0,1,.92-5.22,8.66,8.66,0,0,0,1.58-3.91,2.57,2.57,0,0,1,1.5-2.25c2.4-.92,1.76-2.39-2.24-5.1-3.82-2.6-3.72-2.88.89-2.58,1.46.09,2.94-.31,3.31-.89,1-1.71,2-1.31,7.16,2.93,2.66,2.2,5.34,4,6,4,1.15,0,3,3.92,7.06,14.94,1.31,3.55,3.25,7.38,4.32,8.53s3.12,5,4.54,8.55c1.52,3.83,2.28,5.05,1.85,3a43.71,43.71,0,0,1-.6-8c.11-3.94-.38-5.06-3.93-9-2.23-2.47-3.74-3.6-3.35-2.5l1.27,3.5c.42,1.14.26,1.23-.67.38-.67-.62-1.34-2.64-1.49-4.5a18.71,18.71,0,0,0-2.93-7.27c-1.46-2.14-2.65-4.36-2.65-4.95,0-1.43.89-.32,5.45,6.7,2.09,3.22,5.27,6.72,7.06,7.78,3.75,2.22,4.83,5,3.26,8.46-1.38,3,.53,14.61,3.31,20.06a18.36,18.36,0,0,1,1.92,5.12c0,.74,2.57,3.91,5.72,7,6.8,6.76,11.13,12.25,14.69,18.61a88,88,0,0,0,4.76,7.6c1.38,1.86,2.32,4.92,2.62,8.5.41,4.93.87,5.91,3.91,8.28a21.64,21.64,0,0,1,4.86,5.37,7.36,7.36,0,0,0,3.27,3.27,6.18,6.18,0,0,1,3,3.09,7.65,7.65,0,0,0,3.65,3.46c3,1.13,3.42,2.42.52,1.5-1.15-.36-2-.18-2,.43a1,1,0,0,0,1,1.07c.55,0,.88.56.75,1.24s.73,1.13,2.55.92a6.82,6.82,0,0,1,4.41,1c1.36,1.13,1.54,1.1,1.12-.17a3.48,3.48,0,0,0-2.66-1.82c-1.2-.17-2.17-.72-2.17-1.2s1.77-.26,3.94.5a22.52,22.52,0,0,0,9.55.81c5.33-.55,5.78-.41,9,2.67a16.69,16.69,0,0,0,6.69,3.94,6.41,6.41,0,0,1,4.47,3,15.8,15.8,0,0,0,2.18,3.34,2.78,2.78,0,0,1,.46,2.66c-.32.9-.21,1.3.24.89s1.48.2,2.29,1.35c1.34,1.92,2.08,2,8.66,1.43l7.19-.68,1.18,3.94a28.59,28.59,0,0,1,1.19,5.82c0,1,2.09,3.68,4.62,5.88,7.27,6.33,8.48,7.8,10,12,1.84,5.27,1.92,5-2.17,7.39-3.28,1.93-5,2.1-20.5,2C707.65,604.81,706.91,604.72,706.91,602.82Z" transform="translate(-12.91 -18)" style="fill:#f4f4f4"/><path id="path7345" d="M615.35,454.85a1.93,1.93,0,0,1,.44-2.2c.82-.81,1.12-.52,1.12,1.09Q616.91,457.37,615.35,454.85Z" transform="translate(-12.91 -18)" style="fill:#f4f4f4"/></g><path id="path7381" d="M919.57,551.51a26.38,26.38,0,0,1-2.93,5.77,38.18,38.18,0,0,0-3.66,7.49c-1.84,5.14-4.13,6.33-7.07,3.67s-5.45-1.55-5.82,2.26c-.28,2.95-.61,3.24-3.69,3.24s-3.4-.2-3.93-4.25c-.3-2.34-1.26-13.25-2.13-24.25s-2.21-24.16-3-29.24-1.43-9.45-1.43-9.72,3.33-2.86,7.4-5.76c10.08-7.18,43.6-32.42,46.18-34.77" transform="translate(-12.91 -18)" style="fill:#f4f4f4"/><g id="g7465"><path id="path7355" d="M351.94,480.3c0-.62-1.61-1.43-3.53-1.79s-3.49-1-3.47-1.36,2.28-3,5-5.71c3.75-3.75,4.87-5.53,4.48-7.14a21.84,21.84,0,0,1,.36-6.85c.74-4,.59-5-.89-6.49a12.34,12.34,0,0,0-2.68-2.14c-.51-.21-1.95-2.07-3.21-4.13-1.9-3.12-2-3.75-.7-3.75,2,0,2.05-2.36.08-4-1.26-1-1.51-.86-1.56,1.13-.09,3.2-2.35-4.34-4.39-14.63-.88-4.4-1.86-9-2.19-10.25s-.15-2.25.52-2.25,1.12,1.15,1.12,2.56c0,2.39.27,2.54,4.25,2.25,3.19-.23,4.15-.68,3.85-1.81-.22-.82-.85-3.12-1.42-5.11-.88-3.12-.71-4,1.24-6.78,1.25-1.75,2-3.78,1.75-4.52-1.29-3.36,3.57-4.49,10.44-2.44,3.35,1,3.93,1.63,4.43,4.75.31,2,.73,4.39.92,5.35s-.75,2.62-2.17,3.74c-4.7,3.69-.44,6.9,4.54,3.42,3.23-2.27,7.17-1.12,7.17,2.09,0,3.4,4,5.92,8.4,5.21l3.37-.55-1.37,5.17c-2,7.42-1.77,9,1.67,12.23,2.91,2.78,3,3.24,2.43,8.24-.6,4.84-.44,5.46,1.83,7.25,4.33,3.4.66,8.62-4.23,6a9.94,9.94,0,0,0-2.54-1.06c-1.23,0-.47,5.95.94,7.36,1.87,1.87,1.89,3.07.1,4.55-.77.64-1.7,2.78-2.07,4.76l-.67,3.6L380,473.54c-4.85-4.74-9.85-5.73-13.68-2.72a9.78,9.78,0,0,1-4.81,2.11c-1.25,0-3.63,1.72-5.83,4.25C353.64,479.52,352,480.93,351.94,480.3Z" transform="translate(-12.91 -18)" style="fill:#f4f4f4"/><path id="path7343" d="M323.37,453.87c-.92-1.48.14-2.29,2.06-1.56.88.34,1.32,1.07,1,1.62A1.65,1.65,0,0,1,323.37,453.87Z" transform="translate(-12.91 -18)" style="fill:#f4f4f4"/><path id="path7341" d="M315.92,450.19c.05-2.38,2.75-3.73,6.75-3.36,1,.09,1,.51,0,2.11C321.48,450.85,315.89,451.88,315.92,450.19Z" transform="translate(-12.91 -18)" style="fill:#f4f4f4"/><path id="path7335" d="M309.11,441.62c-1.54-4.26-1.55-4.23.73-4.4s3.51,1.14,5,5c1,2.56.87,2.72-1.74,2.72C310.85,444.94,310.08,444.3,309.11,441.62Z" transform="translate(-12.91 -18)" style="fill:#f4f4f4"/><path id="path7331" d="M302.91,433.88c0-1.13.45-1.78,1-1.44a2.65,2.65,0,0,1,1,2.06c0,.79-.45,1.44-1,1.44S302.91,435,302.91,433.88Z" transform="translate(-12.91 -18)" style="fill:#f4f4f4"/></g><g id="g7445"><g id="g7414"><path id="path7319" d="M198.92,390.45c-1.52-1.61-2.6-4.34-3.07-7.75a44.85,44.85,0,0,0-3.58-11.16c-2.34-4.82-3.76-6.38-7.76-8.59a16.3,16.3,0,0,1-6.71-6.23c-2.62-5.1-16.34-18.62-19.63-19.34-4.34-.95-8.26-2.6-8.26-3.49,0-.44,1.46-.4,3.25.09l3.25.9-2.75-2.42c-1.52-1.33-2.75-3.27-2.75-4.3,0-2-3.88-2.57-5.24-.72-.4.55-.75-.12-.78-1.5a9,9,0,0,0-1.51-4.44,8.71,8.71,0,0,1-1.59-4c-.08-1.45-.35-1.17-.88.94-.72,2.83-.78,2.86-1,.5s-.25-2.33-1-.5-.88,1.59-1.51-1.26c-.4-1.79-1.14-3-1.64-2.69s-.92-.13-.92-1,.5-1.45,1.12-1.31a1.57,1.57,0,0,0,1.63-1.14c.31-.85.07-1.12-.62-.69-1.58,1-1.43-.25.87-6.92a38.7,38.7,0,0,0,2-7.66c0-1,.5-1.84,1.12-1.84.77,0,.74-.46-.12-1.5s-.9-1.5-.13-1.5,1.07-1.82,1-4.75l-.15-4.75-.71,4c-.71,4-.72,3.95-.91-1.5-.23-6.82-2.25-14.78-3.64-14.32-.57.19-1.62-1.25-2.33-3.21-1-2.78-1.69-3.42-3.15-3a3.9,3.9,0,0,1-3.7-1.21,23.57,23.57,0,0,0-4.65-3.27c-1.54-.81-2.32-1.63-1.72-1.83,1.65-.55,1.32-2.2-.44-2.2-2.45,0-6.39-3-5.83-4.48.28-.74-.22-2.76-1.12-4.5-1.36-2.62-1.42-3.43-.33-4.73s1-1.48-1.19-.8c-2.42.75-2.44.72-.74-1.18s2.42-6.31.94-6.31c-.44,0-1.59,1.77-2.54,3.93-1.67,3.79-1.85,3.9-4.76,2.89-1.93-.68-2.82-1.56-2.49-2.44a.93.93,0,0,0-.93-1.38,1.66,1.66,0,0,0-1.47,1.8,4.75,4.75,0,0,1-1.12,2.92c-1.28,1.28-4.17.55-3.31-.83.3-.5-.14-1.17-1-1.49s-2.49-2.13-3.64-4c-1.42-2.3-2.86-3.4-4.44-3.4s-3-1.1-4.44-3.4c-2.22-3.59-4.22-4.86-6.35-4-2.37.91-5.71-3.37-5.74-7.35,0-4.44-1.54-6.65-5.12-7.54a5.22,5.22,0,0,1-3.7-3.66c-.58-1.66-1.66-3-2.41-3-1.78,0-6-5.72-4.78-6.47s4.76-.09,9.44,1.86,8.63,2,11.16.14,3.44-1.89,3.44.5a3.32,3.32,0,0,0,2.25,2.89c2.49.94,4.09.45,3.2-1-.31-.51.13-.93,1-.93s1.56-.46,1.56-1-1.06-.75-2.51-.39c-2.12.53-2.41.35-1.83-1.15s.31-1.64-1-1.14-1.22,0,.58-2.43c2.07-2.82,2.28-2.9,2.58-1,.39,2.61.44,2.62,23.87,4.74,10.56.95,19,2.07,18.73,2.48-1,1.6,4.91,12,7.59,13.39,2.92,1.51,6.81,8.65,7.71,14.16.38,2.37,1.47,3.84,3.89,5.26,2.91,1.72,3.28,2.37,2.77,4.91-.34,1.67-.12,3.21.52,3.6s1.11,2.79,1.12,5.37c0,5.29,3,10.52,4.95,8.61.78-.77.51-1.81-.94-3.65-2-2.55-2.89-9.77-1.2-9.77s7.2,7.92,7.81,11c.33,1.67,1.23,3,2,3s1.36,1.14,1.33,3.25c-.06,4.59,1.11,11,2.26,12.46.63.8.55,2.47-.24,4.86-1.1,3.36-.94,4.19,2.15,10.55,1.85,3.79,4,7.12,4.87,7.38a3.09,3.09,0,0,1,1.61,2.74c.29,6.4,1.71,11.55,4.38,15.89,3.7,6,4.61,9.45,3,11.38-.87,1.05-1,3.43-.5,8.23.9,8.41,3.32,12.23,7.83,12.34,1.75,0,2.61.31,1.93.58-2,.8-1.46,2.34.79,2.34,1.76,0,2-.46,1.48-3.25-.31-1.79-.14-3.9.39-4.69.76-1.16,2-.39,6,3.87,2.79,2.92,5.07,5.93,5.07,6.69s1,1.38,2.5,1.38c1.91,0,2.5.52,2.5,2.22a49.5,49.5,0,0,0,1.25,7.68c1,4.43,1.85,5.81,4.45,7.35,5.4,3.19,5.58,12,.35,17.5-1.17,1.24-2.77,2.25-3.56,2.25s-3.44,1.13-5.9,2.5a43.79,43.79,0,0,1-4.86,2.5A13.89,13.89,0,0,1,198.92,390.45Z" transform="translate(-12.91 -18)" style="fill:#f4f4f4"/><path id="path7317" d="M207.23,344.2c-1.53-4.89-.93-5.3,1.62-1.12,2.38,3.9,2.54,4.86.8,4.86C209,347.94,207.87,346.26,207.23,344.2Z" transform="translate(-12.91 -18)" style="fill:#f4f4f4"/><path id="path7313" d="M146.56,335.11c-1.83-2-2.11-3.17-.77-3.17.49,0,1.62,1.13,2.52,2.5C150.21,337.34,149,337.8,146.56,335.11Z" transform="translate(-12.91 -18)" style="fill:#f4f4f4"/><path id="path7311" d="M191.59,333.41c-2.22-4.66-2.14-4.83.82-1.88,1.37,1.38,2.5,3.16,2.5,4C194.91,338,193.33,337.05,191.59,333.41Z" transform="translate(-12.91 -18)" style="fill:#f4f4f4"/><path id="path7309" d="M140.41,328.26c-2.9-2.39-2.91-2.46-.5-1.79,3,.82,5.53,3,4.34,3.76C143.79,330.52,142.06,329.63,140.41,328.26Z" transform="translate(-12.91 -18)" style="fill:#f4f4f4"/><path id="path7305" d="M134.91,324.45a8.36,8.36,0,0,1-1.51-3.78c-.38-3.62-.43-3.69-2-3.09s-1.95-.82-.59-3.4c.51-1,1.56-3.31,2.33-5.24s1.95-4.62,2.59-6c1.09-2.32,1.13-2.24.55,1a27.38,27.38,0,0,1-2.1,6.39c-1.14,2.23-1.23,3.44-.38,5.3a13.6,13.6,0,0,1,1.1,4.66,5.56,5.56,0,0,0,1.18,3.43c.65.66.94,1.43.64,1.73S135.62,325.3,134.91,324.45Z" transform="translate(-12.91 -18)" style="fill:#f4f4f4"/><path id="path7303" d="M186.1,319.36c-1.21-.84-2.19-2-2.19-2.65a6.32,6.32,0,0,0-1.66-2.95c-2.1-2.32-1.33-3.14,1.82-1.95,1.6.61,2.84,2.24,3.61,4.73.64,2.09,1,3.92.88,4.08S187.3,320.21,186.1,319.36Z" transform="translate(-12.91 -18)" style="fill:#f4f4f4"/><path id="path7301" d="M182.91,305a2.14,2.14,0,0,1,1-1.56c.55-.34,1,.08,1,.94s-.45,1.56-1,1.56A1,1,0,0,1,182.91,305Z" transform="translate(-12.91 -18)" style="fill:#f4f4f4"/><path id="path7299" d="M137,297.25a12.83,12.83,0,0,1,.93-3.81c.72-1.68.87-1.5.93,1.19,0,1.76-.38,3.47-.93,3.81S136.94,298.25,137,297.25Z" transform="translate(-12.91 -18)" style="fill:#f4f4f4"/><path id="path7295" d="M181.24,291.37a2.63,2.63,0,0,1,.4-2.57c.67-.67,1.17-.15,1.5,1.57C183.67,293.16,182.22,293.93,181.24,291.37Z" transform="translate(-12.91 -18)" style="fill:#f4f4f4"/><path id="path7293" d="M172.91,288.44c0-.82.45-1.5,1-1.5s1,.68,1,1.5-.45,1.5-1,1.5S172.91,289.27,172.91,288.44Z" transform="translate(-12.91 -18)" style="fill:#f4f4f4"/><path id="path7291" d="M167.91,280.89c0-2.17,3.11-6.95,4.52-6.95,2.27,0,1.75,2.63-1.07,5.46S167.91,282.47,167.91,280.89Z" transform="translate(-12.91 -18)" style="fill:#f4f4f4"/></g><path id="path7287" d="M144.91,228.38c0-.86.45-1.28,1-.94a2.14,2.14,0,0,1,1,1.56,1,1,0,0,1-1,.94C145.36,229.94,144.91,229.24,144.91,228.38Z" transform="translate(-12.91 -18)" style="fill:#f4f4f4"/></g><path id="path7281" d="M125.91,175.44c-1.6-1.92,0-1.94,2.56,0,1.63,1.23,1.68,1.47.31,1.5A4.2,4.2,0,0,1,125.91,175.44Z" transform="translate(-12.91 -18)" style="fill:#f4f4f4"/><path id="path7285" d="M12.91,19c0-1.41,9.09-1.29,38.5.5s35.5,2.36,35.5,3.36c0,.41-2.26,3.09-5,5.95-3.9,4.05-4.82,5.6-4.14,6.94,2.82,5.51,1.68,14.73-1.66,13.48-1.51-.56-1.53-.44-.17,1.27.82,1,2.28,2.7,3.25,3.69,1.86,1.91,2.28,4.78.92,6.34-1.58,1.81-3.28,9-3.31,13.95-.06,7.52.13,8.56,1.64,9.14,1.12.43,1.3,3.58.92,17-.39,14-.23,16.53,1.06,17a2.34,2.34,0,0,1,1.52,1.91,5.41,5.41,0,0,0,1.59,2.92,3.33,3.33,0,0,1,1,3c-.57,1.48.78,2.78,3.28,3.16a4.14,4.14,0,0,1,2.42,2,23.4,23.4,0,0,0,3.2,4A52.2,52.2,0,0,1,98,140.1a43.34,43.34,0,0,0,5.67,6.22c1.81,1.59,3.21,3.62,3.1,4.51a15,15,0,0,0,.59,4.47c.53,1.89.4,3.1-.38,3.58s-.89,1.46-.1,3.54c1,2.69,1.13,2.73,2.46.92,1.58-2.17,3-1.23,3,1.94,0,1.49.61,2.16,2,2.16,1.66,0,2,.72,2.14,4.27.17,5,1.45,6.87,5.43,7.75,2.48.54,3,1.25,3.56,4.58.35,2.17,1,4.19,1.5,4.48s.87,2.31.87,4.48c0,3.91,0,3.94-3.75,3.81-2.07-.07-11.3-.91-20.53-1.86s-17-1.94-17.26-2.21.19-2.12,1-4.11c1.35-3.21,1.35-3.56,0-3-1.67.64-2.08-1.64-.58-3.19a12,12,0,0,0,1.58-4.54c.58-3.13.27-3.95-2.39-6.47a27,27,0,0,1-5.08-7.59c-1.12-2.59-2.89-5-4-5.32a6.26,6.26,0,0,1-3-3.32c-3-7.38-10.15-16.21-13.09-16.21-.9,0-3.25-1.69-5.2-3.75S50.27,129.87,48,128c-3.42-2.91-4.1-4.1-4.1-7.14" transform="translate(-12.91 -18)" style="fill:#f4f4f4"/><path id="path7283" d="M48.14,187.49c-3.57-2-3.69-2.43-.87-3.5,2-.74,2.64-1.7,2.65-3.77,0-3.54,1.64-6.48,2.34-4.25,1.37,4.34,1.48,6.79.42,9.72C51.38,189.27,51.37,189.28,48.14,187.49Z" transform="translate(-12.91 -18)" style="fill:#f4f4f4"/><path id="path7273" d="M116.88,157.83c-2.24-2.41-4.88-5.29-5.87-6.39-3.1-3.45-4.62-11.36-2.35-12.24,1.65-.63,6.25,4.44,6.11,6.74-.21,3.36.26,4,2.94,4s2.77.25,2.4,3.39a11.25,11.25,0,0,0,.78,5.58C123,162.85,121.05,162.32,116.88,157.83Z" transform="translate(-12.91 -18)" style="fill:#f4f4f4"/><g id="g7428"><g id="g7399"><path id="path7279" d="M135.51,174.52c.34-.87,1.05-1.58,1.59-1.58,1.31,0,.49,2.27-1,2.77C135.36,176,135.14,175.5,135.51,174.52Z" transform="translate(-12.91 -18)" style="fill:#f4f4f4"/><path id="path7277" d="M140.66,171.5c-4.84-2.53-4.87-2.59-2.77-5.26a10.37,10.37,0,0,0,2-5.41c0-3.38,4.66-6.57,6.58-4.5,2.13,2.3,2.46,8.87.64,12.81C145.21,173.33,144.59,173.55,140.66,171.5Z" transform="translate(-12.91 -18)" style="fill:#f4f4f4"/></g><g id="g7405"><path id="path7289" d="M231.47,265.14c.6-4.5.46-5.06-1.45-5.66-2.91-.92-4.68-4.28-2.49-4.72,1.37-.27,1.29-.68-.59-2.82-1.54-1.75-2-2-1.64-.73.49,1.55.28,1.63-1.67.61-2.21-1.16-2.21-1.16-.32,1,1.05,1.18,1.41,2.14.81,2.14a2.38,2.38,0,0,1-1.76-1.07,1.62,1.62,0,0,0-1.89-.59,3,3,0,0,1-2.36-.22c-1.61-1-6.37-12.12-5.19-12.12a1,1,0,0,0,1-1c0-1.27-6.34-3.93-7-2.93-.27.41-3.2-.54-6.5-2.12s-5.6-2.89-5.12-2.91.3-.72-.39-1.56a11.83,11.83,0,0,1-1.6-5.24c-.18-2.05-.79-3.88-1.36-4.06-1.26-.42-1.37-4.18-.13-4.18.49,0,.87-1,.84-2.25a11,11,0,0,1,.58-3.75c.4-.95-.33-2.2-2-3.43-2.29-1.67-2.56-1.7-2-.24s.47,1.56-1.82.06a5.13,5.13,0,0,1-2.47-4.06c0-1.48-.42-2.19-1.07-1.79a1.62,1.62,0,0,0-.59,1.9,3.37,3.37,0,0,1-.46,2.65c-.75,1.15-1.29,1-2.9-.95a8.28,8.28,0,0,1-2-3.78c0-1.1-.45-1.19-1.94-.39-2.3,1.23-2.42,1.07-4.16-5.85-1.24-4.93-1.71-5.53-5.63-7.21-2.49-1.07-4.27-2.51-4.27-3.44s-1.13-3.08-2.5-4.88c-2.87-3.76-3.18-5.59-.94-5.59.85,0,1.26-.48.89-1.07a1.71,1.71,0,0,0-2-.55c-1.37.53-7.33-5.47-7.61-7.66-.09-.67-.24-2.42-.35-3.9-.33-4.57-2.54-8.68-4.84-9-1.84-.26-2.15-1-2.15-4.81,0-3.53-.74-5.52-3.42-9.25-1.88-2.61-3.75-4.75-4.16-4.75s-.78-3.78-.83-8.41c-.1-9.51-.52-11.21-2.93-11.84-1.07-.28-2.19-2.32-3-5.47a43.06,43.06,0,0,0-4.72-10.37c-2.44-3.79-3.44-6.49-3.44-9.3a9.57,9.57,0,0,0-1.73-5.86c-1.64-1.81-1.64-2,0-2.88,2.27-1.27,2.18-2.48-.39-5.16l-2.11-2.21.68,2.25c.76,2.52-.9,3.14-1.84.69-.33-.86-1-1.34-1.4-1.07s-3.94-.26-7.76-1.18c-6.52-1.58-6.93-1.85-6.66-4.26.23-1.94-.32-2.85-2.27-3.74a6.81,6.81,0,0,1-3.19-2.76c-.38-1-.86-1.2-1.27-.53-.85,1.37-8.06-3.43-8.06-5.36,0-.77-1.12-2.27-2.49-3.35-2.19-1.72-2.37-2.31-1.46-4.91a19.33,19.33,0,0,0-.49-11.39c-.41-1,.21-2.59,1.63-4.19l2.31-2.59,16.5,8.58c9.07,4.71,23,12.06,31,16.32,62.18,33.21,61.1,32.68,68,33.26,27.57,2.31,56.05,4.89,58.76,5.31s3.12.76,2.24,2.41c-.55,1-.62,2.13-.16,2.42s1.43,5.38,2.12,11.31a104.88,104.88,0,0,0,2.78,15.28c1.21,3.57,1.39,7.3.9,18-.75,16.19-1.3,19.13-3.51,18.77-1.23-.2-1.6.48-1.51,2.73.11,2.61.2,15.29.21,28a49.24,49.24,0,0,0,.33,6c.31,1.87-.13,2-6.72,1.67-8.9-.42-10,.52-8.42,7.42a44.15,44.15,0,0,0,4.33,10.36c5.8,9.88,7.17,14.54,5.55,18.8-1,2.6,1.2,9.25,3.05,9.25.57,0,1.05,1.29,1.05,2.86,0,3.88-6.5,11.11-15,16.72a59.19,59.19,0,0,1-7.35,4.42c-.35,0-.63-1.16-.63-2.58,0-3.19-2.21-2.76-3,.58a4.17,4.17,0,0,1-1.83,2.78C231.11,270,231,269,231.47,265.14Z" transform="translate(-12.91 -18)" style="fill:#f4f4f4"/><path id="path3930" d="M84.07,65.39c-2.59-5.68-.65-7.22,3.39-2.7,1.77,2,2.27,2.22,1.78.84s-.31-1.69.5-1.19c1.58,1,1.47,2.16-.4,4C87.08,68.63,85.4,68.31,84.07,65.39Z" transform="translate(-12.91 -18)" style="fill:#f4f4f4"/></g></g><circle cx="462.09" cy="409" r="86" style="fill:#8cc63f;opacity:0.2"/><circle cx="462.09" cy="409" r="55.3" style="fill:#1b1464;opacity:0.8"/><path d="M474.37,425.57a15.69,15.69,0,1,0-15.69-15.69A15.68,15.68,0,0,0,474.37,425.57Zm0-27.46a11.77,11.77,0,1,1-11.77,11.77A11.79,11.79,0,0,1,474.37,398.11Zm11.49,31.4c-4.15-.12-5.43,1.95-11.49,1.95s-7.33-2.07-11.48-1.95a16.47,16.47,0,0,0-16,16.47v10a1,1,0,0,0,1,1h2a1,1,0,0,0,1-1V446a12.55,12.55,0,0,1,11.77-12.49v10a6.87,6.87,0,1,0,3.92,0v-9.43a24.53,24.53,0,0,0,15.7,0v8.44a8.16,8.16,0,0,0-5.89,7.92V454a2,2,0,0,0,.58,1.38l1.26,1.27a1,1,0,0,0,1.39,0l1.38-1.39a1,1,0,0,0,0-1.38l-.7-.7v-3.1a4,4,0,0,1,4.59-3.88,4.08,4.08,0,0,1,3.26,4.08v2.9l-.7.7a1,1,0,0,0,0,1.38l1.38,1.39a1,1,0,0,0,1.39,0l1.26-1.27A2,2,0,0,0,492,454V450.1a7.82,7.82,0,0,0-5.89-7.56v-9A12.53,12.53,0,0,1,497.88,446v10a1,1,0,0,0,1,1h2a1,1,0,0,0,1-1V446a16.44,16.44,0,0,0-15.95-16.47ZM467.5,450.1a2.94,2.94,0,1,1-2.94-3A3,3,0,0,1,467.5,450.1Z" transform="translate(-12.91 -18)" style="fill:#fff"/></svg>